<svg viewBox="4 4 56 56" id="js" xmlns="http://www.w3.org/2000/svg"><path d="M4 4v56h56V4H4zm30.475 43.675c0 5.45-3.2 7.938-7.862 7.938-4.212 0-6.65-2.175-7.9-4.812L23 48.212c.825 1.463 1.575 2.7 3.388 2.7 1.725 0 2.825-.675 2.825-3.312V29.712h5.263l-.001 17.963zm12.45 7.937c-4.888 0-8.05-2.325-9.587-5.375l4.287-2.475c1.125 1.838 2.6 3.2 5.188 3.2 2.175 0 3.575-1.088 3.575-2.6 0-1.8-1.425-2.438-3.838-3.5l-1.313-.562c-3.8-1.612-6.312-3.65-6.312-7.938 0-3.95 3.013-6.95 7.7-6.95 3.35 0 5.75 1.163 7.475 4.213L50 36.25c-.9-1.612-1.875-2.25-3.388-2.25-1.537 0-2.513.975-2.513 2.25 0 1.575.975 2.213 3.237 3.2l1.312.562c4.475 1.912 6.987 3.875 6.987 8.275.002 4.725-3.723 7.325-8.71 7.325z"></path></svg>
