<svg viewBox="0 0 1071.4 928.6" id="desktop" xmlns="http://www.w3.org/2000/svg"><path d="M1000 553.6V89.3c0-4.867-1.767-9.067-5.3-12.6-3.533-3.533-7.733-5.3-12.6-5.3H89.3c-4.867 0-9.067 1.767-12.6 5.3-3.533 3.533-5.3 7.733-5.3 12.6v464.3c0 4.8 1.767 8.967 5.3 12.5 3.533 3.533 7.733 5.3 12.6 5.3h892.8c4.867 0 9.067-1.767 12.6-5.3s5.3-7.7 5.3-12.5zm71.4-464.3v607.1c0 24.6-8.733 45.633-26.2 63.1s-38.5 26.2-63.1 26.2H678.6c0 13.8 2.967 28.233 8.9 43.3s11.9 28.267 17.9 39.6c6 11.333 8.967 19.433 8.9 24.3 0 9.667-3.533 18.033-10.6 25.1s-15.433 10.6-25.1 10.6H392.9c-9.733 0-18.133-3.533-25.2-10.6s-10.6-15.433-10.6-25.1c0-5.267 3-13.467 9-24.6 6-11.133 11.933-24.167 17.8-39.1 5.867-14.933 8.867-29.433 9-43.5H89.3c-24.533 0-45.567-8.733-63.1-26.2S-.067 721 0 696.4V89.3c0-24.533 8.733-45.567 26.2-63.1S64.7-.067 89.3 0h892.8c24.6 0 45.633 8.733 63.1 26.2s26.2 38.5 26.2 63.1z"></path></svg>
