<svg viewBox="0 71.4 642.9 785.7" id="mobile" xmlns="http://www.w3.org/2000/svg"><path d="M357.1 785.7c0-9.667-3.533-18.033-10.6-25.1S331.067 750 321.4 750c-9.667 0-18.033 3.533-25.1 10.6s-10.6 15.433-10.6 25.1 3.533 18.033 10.6 25.1 15.433 10.6 25.1 10.6c9.667 0 18.033-3.533 25.1-10.6s10.6-15.433 10.6-25.1zm214.3-89.3V160.7c0-4.8-1.767-8.967-5.3-12.5-3.533-3.533-7.7-5.3-12.5-5.3H89.3c-4.867 0-9.067 1.767-12.6 5.3-3.533 3.533-5.3 7.7-5.3 12.5v535.7c0 4.867 1.767 9.067 5.3 12.6 3.533 3.533 7.733 5.3 12.6 5.3h464.3c4.8 0 8.967-1.767 12.5-5.3s5.3-7.733 5.3-12.6zm71.5-535.7v607.2c0 24.533-8.767 45.533-26.3 63s-38.533 26.2-63 26.2H89.3c-24.533 0-45.567-8.733-63.1-26.2S-.067 792.433 0 767.9V160.7c0-24.533 8.733-45.533 26.2-63s38.5-26.233 63.1-26.3h464.3c24.533 0 45.533 8.767 63 26.3s26.233 38.533 26.3 63z"></path></svg>
