<svg viewBox="0 142.9 428.6 714.2" id="mobile" xmlns="http://www.w3.org/2000/svg"><path d="M258.9 785.7c0-12.267-4.367-22.767-13.1-31.5s-19.233-13.1-31.5-13.1-22.767 4.367-31.5 13.1-13.133 19.233-13.2 31.5c-.067 12.267 4.333 22.767 13.2 31.5 8.867 8.733 19.367 13.133 31.5 13.2s22.633-4.333 31.5-13.2 13.233-19.367 13.1-31.5zM375 696.4V303.6c0-4.867-1.767-9.067-5.3-12.6-3.533-3.533-7.733-5.3-12.6-5.3H71.4c-4.8 0-8.967 1.767-12.5 5.3-3.533 3.533-5.3 7.733-5.3 12.6v392.8c0 4.867 1.767 9.067 5.3 12.6 3.533 3.533 7.7 5.3 12.5 5.3h285.7c4.867 0 9.067-1.767 12.6-5.3s5.3-7.733 5.3-12.6zM267.9 223.2c0-5.933-3-8.9-9-8.9h-89.3c-5.933 0-8.9 2.967-8.9 8.9s2.967 8.9 8.9 8.9h89.3c6 0 9-2.967 9-8.9zm160.7-8.9v571.4c0 19.333-7.067 36.067-21.2 50.2-14.133 14.133-30.9 21.2-50.3 21.2H71.4c-19.333 0-36.067-7.067-50.2-21.2S0 805.033 0 785.7V214.3c0-19.333 7.067-36.067 21.2-50.2s30.867-21.2 50.2-21.2h285.7c19.4 0 36.167 7.067 50.3 21.2 14.133 14.133 21.2 30.867 21.2 50.2z"></path></svg>
